<svg width="27" height="26" viewBox="0 0 27 26" fill="none" xmlns="http://www.w3.org/2000/svg">
<path d="M10.5678 22.6149H16.9772M20.1818 9.36881C20.1818 7.78226 19.5066 6.2607 18.3045 5.13883C17.1026 4.01697 15.4723 3.38672 13.7725 3.38672C12.0726 3.38672 10.4423 4.01697 9.24035 5.13883C8.03837 6.2607 7.36308 7.78226 7.36308 9.36881C7.36308 12.2383 6.64076 14.265 5.79007 15.657C4.96615 17.0052 4.5542 17.6793 4.5695 17.8544C4.58671 18.0511 4.62553 18.1203 4.78441 18.2376C4.92583 18.3419 5.59797 18.3419 6.94227 18.3419H20.6027C21.947 18.3419 22.6191 18.3419 22.7606 18.2376C22.9194 18.1203 22.9583 18.0511 22.9755 17.8544C22.9908 17.6793 22.5787 17.0052 21.7549 15.657C20.9042 14.265 20.1818 12.2383 20.1818 9.36881Z" stroke="#667085" stroke-width="1.5" stroke-linecap="round" stroke-linejoin="round"/>
</svg>
