<svg width="32" height="32" viewBox="0 0 32 32" fill="none" xmlns="http://www.w3.org/2000/svg">
<path d="M22.6 27.333H22.7333" stroke="#FB6514" stroke-width="2" stroke-linecap="round" stroke-linejoin="round"/>
<path d="M22.667 17.333V23.333" stroke="#FB6514" stroke-width="2" stroke-linecap="round" stroke-linejoin="round"/>
<path d="M10.6667 15.9997H16V9.33301" stroke="#FB6514" stroke-width="2" stroke-linecap="round" stroke-linejoin="round"/>
<path d="M16 28C13.6266 28 11.3066 27.2962 9.33316 25.9776C7.35977 24.6591 5.8217 22.7849 4.91345 20.5922C4.0052 18.3995 3.76756 15.9867 4.23058 13.6589C4.6936 11.3312 5.83649 9.19295 7.51472 7.51472C9.19295 5.83649 11.3312 4.6936 13.6589 4.23058C15.9867 3.76756 18.3995 4.0052 20.5922 4.91345C22.7849 5.8217 24.6591 7.35977 25.9776 9.33316C27.2962 11.3066 28 13.6266 28 16" stroke="#FB6514" stroke-width="2" stroke-linecap="round" stroke-linejoin="round"/>
</svg>
