<svg width="32" height="32" viewBox="0 0 32 32" fill="none" xmlns="http://www.w3.org/2000/svg">
<path d="M16 2.75C13.3794 2.75 10.8176 3.5271 8.6387 4.98302C6.45975 6.43896 4.76147 8.50832 3.7586 10.9294C2.75574 13.3506 2.49335 16.0147 3.0046 18.5849C3.51585 21.1551 4.77779 23.5161 6.63084 25.3692C8.48389 27.2222 10.8448 28.4842 13.4151 28.9955C15.9853 29.5066 18.6494 29.2443 21.0706 28.2414C23.4917 27.2385 25.5611 25.5403 27.0169 23.3613C28.473 21.1824 29.25 18.6206 29.25 16C29.25 12.4859 27.854 9.1157 25.3692 6.63084C22.8843 4.14598 19.5142 2.75 16 2.75ZM4.95833 16C4.95611 13.4536 5.84109 10.9862 7.46111 9.02167L22.9783 24.5389C21.3627 25.864 19.4036 26.7029 17.3296 26.9578C15.2555 27.2125 13.1518 26.8727 11.2634 25.9778C9.37501 25.083 7.77977 23.67 6.6635 21.9035C5.54722 20.1369 4.95587 18.0897 4.95833 16ZM24.5389 22.9783L9.02167 7.46111C11.1381 5.72913 13.8226 4.8454 16.554 4.98149C19.2853 5.11758 21.8687 6.26378 23.8025 8.19755C25.7362 10.1313 26.8824 12.7147 27.0186 15.446C27.1546 18.1774 26.2708 20.8619 24.5389 22.9783Z" fill="#F04438"/>
</svg>
