<svg width="20" height="20" viewBox="0 0 20 20" fill="none" xmlns="http://www.w3.org/2000/svg">
<path d="M18.7726 10.445C18.7738 12.0833 18.292 13.6856 17.3876 15.0517C16.4831 16.4177 15.1961 17.4869 13.6874 18.1255C12.1786 18.7641 10.5151 18.9439 8.90479 18.6423C7.29446 18.3407 5.80875 17.5711 4.63337 16.4298C3.45799 15.2885 2.64509 13.826 2.29629 12.2253C1.94749 10.6245 2.07825 8.95644 2.67224 7.42958C3.26623 5.90272 4.29708 4.58481 5.63595 3.64059C6.97482 2.69637 8.56231 2.16773 10.2 2.12076C10.3576 2.10037 10.5171 2.10037 10.6747 2.12076C12.8423 2.18104 14.901 3.08429 16.4132 4.63853C17.9254 6.19276 18.7718 8.27649 18.7726 10.445ZM7.64944 17.0429C7.82768 17.1179 8.00838 17.1857 8.19154 17.246C7.09976 15.3512 6.52885 13.2013 6.5368 11.0144H3.2947C3.40047 12.3213 3.86231 13.5741 4.63004 14.6369C5.39777 15.6997 6.44205 16.5318 7.64944 17.0429ZM3.8347 7.6576C3.5394 8.35467 3.3578 9.09459 3.2968 9.84918H6.5368C6.53023 7.67553 7.09273 5.53802 8.16838 3.64918C7.99365 3.70742 7.82066 3.77269 7.64944 3.84497C5.93154 4.57304 4.56372 5.9401 3.8347 7.6576ZM13.1715 9.84918C13.1456 9.03257 13.0537 8.2194 12.8968 7.4176C12.7433 6.59729 12.4913 5.79853 12.1463 5.03865C11.6758 4.03655 11.0842 3.38286 10.5705 3.28391C10.4817 3.28259 10.3929 3.28259 10.3042 3.28391C9.79049 3.38286 9.19891 4.03655 8.72838 5.0397C8.38371 5.79963 8.13207 6.59839 7.97891 7.41865C7.82202 8.22011 7.73014 9.03292 7.70417 9.84918H13.1715ZM12.1463 15.8239C12.4913 15.064 12.7433 14.2653 12.8968 13.445C13.0533 12.6435 13.1448 11.8307 13.1705 11.0144H7.70522C7.73118 11.831 7.82306 12.6442 7.97996 13.446C8.13317 14.2659 8.38482 15.0643 8.72944 15.8239C9.24207 16.9144 9.8968 17.5923 10.4389 17.5923C10.981 17.5923 11.6358 16.9144 12.1473 15.8239H12.1463ZM17.0431 13.2323C17.3417 12.527 17.5241 11.778 17.5831 11.0144H14.3389C14.3473 13.202 13.7764 15.3528 12.6842 17.2481C12.8673 17.1878 13.0487 17.1197 13.2284 17.0439C14.9461 16.3161 16.3139 14.9494 17.0431 13.2323ZM13.2284 3.84497C13.057 3.77261 12.8828 3.70695 12.7063 3.64812C13.782 5.53693 14.3445 7.67447 14.3379 9.84812H17.581C17.4711 8.54595 17.0076 7.29853 16.2405 6.24055C15.4734 5.18258 14.4319 4.35424 13.2284 3.84497Z" fill="white"/>
</svg>
