<svg width="32" height="32" viewBox="0 0 32 32" fill="none" xmlns="http://www.w3.org/2000/svg">
<path d="M24.3263 8.61176C25.1521 9.43756 25.565 9.85046 25.7826 10.3755C26 10.9006 26 11.4845 26 12.6524V23.1426C26 25.8363 26 27.1831 25.1631 28.02C24.3263 28.8569 22.9794 28.8569 20.2857 28.8569H11.7143C9.02054 28.8569 7.67367 28.8569 6.83684 28.02C6 27.1831 6 25.8363 6 23.1426V8.85686C6 6.16312 6 4.81625 6.83684 3.97942C7.67367 3.14258 9.02054 3.14258 11.7143 3.14258H16.4901C17.658 3.14258 18.242 3.14258 18.767 3.36006C19.2921 3.57755 19.705 3.99045 20.5309 4.81625L24.3263 8.61176Z" stroke="#12B76A" stroke-width="2" stroke-linejoin="round"/>
<path d="M11.7143 18.8571L13.9674 21.1103C14.301 21.4439 14.8419 21.4439 15.1754 21.1103L20.2857 16" stroke="#12B76A" stroke-width="2" stroke-linecap="round" stroke-linejoin="round"/>
</svg>
