<svg width="19" height="19" viewBox="0 0 19 19" fill="none" xmlns="http://www.w3.org/2000/svg">
<path d="M17.834 9.92252C17.8351 11.4789 17.3775 13.0012 16.5182 14.2989C15.659 15.5966 14.4363 16.6123 13.003 17.219C11.5697 17.8257 9.9894 17.9965 8.45959 17.71C6.92978 17.4235 5.51835 16.6924 4.40174 15.6081C3.28513 14.5239 2.51288 13.1345 2.18151 11.6138C1.85015 10.0931 1.97437 8.50842 2.53866 7.0579C3.10295 5.60739 4.08227 4.35537 5.35419 3.45836C6.62612 2.56136 8.13423 2.05915 9.69 2.01452C9.83971 1.99516 9.99129 1.99516 10.141 2.01452C12.2003 2.0718 14.156 2.92988 15.5926 4.4064C17.0291 5.88292 17.8332 7.86247 17.834 9.92252ZM7.267 16.1905C7.43633 16.2619 7.608 16.3262 7.782 16.3835C6.74481 14.5835 6.20245 12.541 6.21 10.4635H3.13C3.23049 11.705 3.66923 12.8952 4.39857 13.9049C5.12792 14.9145 6.11998 15.705 7.267 16.1905ZM3.643 7.27452C3.36247 7.93674 3.18994 8.63967 3.132 9.35652H6.21C6.20375 7.29156 6.73813 5.26093 7.76 3.46652C7.594 3.52186 7.42967 3.58386 7.267 3.65252C5.63499 4.34419 4.33557 5.6429 3.643 7.27452ZM12.513 9.35652C12.4884 8.58075 12.4011 7.80823 12.252 7.04652C12.1062 6.26723 11.8668 5.50841 11.539 4.78652C11.092 3.83452 10.53 3.21352 10.042 3.11952C9.95767 3.11826 9.87333 3.11826 9.789 3.11952C9.301 3.21352 8.739 3.83452 8.292 4.78752C7.96456 5.50945 7.7255 6.26828 7.58 7.04752C7.43096 7.8089 7.34367 8.58108 7.319 9.35652H12.513ZM11.539 15.0325C11.8668 14.3106 12.1062 13.5518 12.252 12.7725C12.4007 12.0111 12.4876 11.2389 12.512 10.4635H7.32C7.34466 11.2393 7.43194 12.0118 7.581 12.7735C7.72655 13.5524 7.96561 14.3109 8.293 15.0325C8.78 16.0685 9.402 16.7125 9.917 16.7125C10.432 16.7125 11.054 16.0685 11.54 15.0325H11.539ZM16.191 12.5705C16.4747 11.9005 16.6479 11.189 16.704 10.4635H13.622C13.63 12.5417 13.0876 14.5849 12.05 16.3855C12.224 16.3282 12.3963 16.2635 12.567 16.1915C14.1988 15.5001 15.4982 14.2018 16.191 12.5705ZM12.567 3.65252C12.4042 3.58379 12.2387 3.5214 12.071 3.46552C13.093 5.25989 13.6273 7.29055 13.621 9.35552H16.702C16.5976 8.11845 16.1572 6.93341 15.4285 5.92833C14.6998 4.92325 13.7103 4.13633 12.567 3.65252Z" fill="#667085"/>
</svg>
