<svg width="20" height="20" viewBox="0 0 20 20" fill="none" xmlns="http://www.w3.org/2000/svg">
<path d="M3.33333 4.99935V15.8327C3.33333 17.2134 4.45262 18.3327 5.83333 18.3327H14.1667C15.5474 18.3327 16.6667 17.2134 16.6667 15.8327V7.49935C16.6667 6.11864 15.5474 4.99935 14.1667 4.99935H3.33333ZM3.33333 4.99935V4.16602" stroke="#98A2B3" stroke-width="1.5"/>
<path d="M4.57695 3.02905L12.585 1.88505L12.6203 2.13253L4.61231 3.27653L4.57695 3.02905ZM14.7924 3.08799C14.6138 2.56608 14.1639 2.17585 13.622 2.07288L13.5849 1.81333C14.28 1.91113 14.8595 2.41368 15.0546 3.08799H14.7924ZM4.72589 4.87464H13.875V4.99964V5.12464H4.72589V4.87464ZM3.72589 4.68947V4.99353C3.56457 4.90235 3.43062 4.7684 3.33944 4.60709H3.64351C3.66885 4.63658 3.6964 4.66412 3.72589 4.68947ZM3.60556 3.30038L3.64855 3.60129C3.64687 3.60322 3.64519 3.60515 3.64353 3.60709H3.33956C3.40675 3.48815 3.49732 3.38372 3.60556 3.30038Z" fill="#98A2B3" stroke="#98A2B3"/>
<path d="M6.66666 10H13.3333" stroke="#98A2B3" stroke-width="1.5" stroke-linecap="round"/>
<path d="M6.66666 12.916H11.25" stroke="#98A2B3" stroke-width="1.5" stroke-linecap="round"/>
</svg>
