<svg width="20" height="20" viewBox="0 0 20 20" fill="none" xmlns="http://www.w3.org/2000/svg">
<path d="M10 12.5C11.3807 12.5 12.5 11.3807 12.5 10C12.5 8.61929 11.3807 7.5 10 7.5C8.61929 7.5 7.5 8.61929 7.5 10C7.5 11.3807 8.61929 12.5 10 12.5Z" stroke="#98A2B3" stroke-width="1.5"/>
<path d="M11.4712 1.79386C11.1648 1.66699 10.7766 1.66699 9.99999 1.66699C9.22341 1.66699 8.83516 1.66699 8.52883 1.79386C8.12047 1.96302 7.79601 2.28748 7.62685 2.69585C7.54963 2.88228 7.51941 3.09908 7.50758 3.41532C7.49021 3.88006 7.25188 4.31023 6.84911 4.54277C6.44636 4.77529 5.95465 4.76661 5.54348 4.54929C5.2637 4.40141 5.06083 4.31918 4.86078 4.29284C4.42253 4.23514 3.97931 4.3539 3.62863 4.62299C3.36561 4.82481 3.17147 5.16108 2.78318 5.8336C2.3949 6.50613 2.20076 6.84239 2.15748 7.17108C2.09979 7.60933 2.21855 8.05254 2.48764 8.40324C2.61046 8.56333 2.78308 8.69783 3.05098 8.86616C3.44483 9.11366 3.69823 9.53524 3.69821 10.0003C3.69818 10.4654 3.44478 10.8869 3.05098 11.1343C2.78303 11.3027 2.61039 11.4373 2.48756 11.5974C2.21847 11.9481 2.09971 12.3912 2.15741 12.8295C2.20068 13.1582 2.39482 13.4945 2.7831 14.167C3.17139 14.8395 3.36553 15.1758 3.62854 15.3776C3.97923 15.6467 4.42244 15.7654 4.86069 15.7077C5.06073 15.6814 5.26359 15.5992 5.54336 15.4513C5.95455 15.234 6.44629 15.2253 6.84908 15.4578C7.25186 15.6904 7.49021 16.1206 7.50758 16.5854C7.51942 16.9016 7.54963 17.1184 7.62685 17.3048C7.79601 17.7132 8.12047 18.0377 8.52883 18.2068C8.83516 18.3337 9.22341 18.3337 9.99999 18.3337C10.7766 18.3337 11.1648 18.3337 11.4712 18.2068C11.8795 18.0377 12.204 17.7132 12.3731 17.3048C12.4503 17.1184 12.4806 16.9016 12.4924 16.5853C12.5097 16.1206 12.7481 15.6904 13.1508 15.4578C13.5536 15.2252 14.0453 15.234 14.4566 15.4513C14.7363 15.5992 14.9392 15.6813 15.1392 15.7077C15.5774 15.7654 16.0207 15.6467 16.3713 15.3776C16.6343 15.1757 16.8285 14.8395 17.2167 14.1669C17.6051 13.4944 17.7992 13.1582 17.8425 12.8295C17.9002 12.3912 17.7814 11.948 17.5123 11.5973C17.3895 11.4372 17.2168 11.3027 16.9489 11.1343C16.5552 10.8869 16.3017 10.4653 16.3017 10.0002C16.3017 9.53516 16.5552 9.11374 16.9489 8.86633C17.2169 8.69791 17.3896 8.56341 17.5124 8.40324C17.7815 8.0526 17.9002 7.60938 17.8426 7.17113C17.7993 6.84245 17.6052 6.50618 17.2168 5.83366C16.8286 5.16113 16.6344 4.82487 16.3714 4.62305C16.0207 4.35396 15.5775 4.2352 15.1392 4.2929C14.9392 4.31923 14.7364 4.40146 14.4566 4.54933C14.0454 4.76665 13.5537 4.77534 13.1509 4.54279C12.7481 4.31025 12.5097 3.88004 12.4924 3.41528C12.4806 3.09906 12.4503 2.88227 12.3731 2.69585C12.204 2.28748 11.8795 1.96302 11.4712 1.79386Z" stroke="#98A2B3" stroke-width="1.5"/>
</svg>
