<svg width="76" height="25" viewBox="0 0 76 25" fill="none" xmlns="http://www.w3.org/2000/svg">
<g clip-path="url(#clip0_0_5502)">
<path d="M71.9739 7.91044L67.7473 6.94029L66.9926 6.64178L47.5958 6.79104V16.0448L71.9739 16.1194V7.91044Z" fill="white"/>
<path d="M45.0604 15.2239C45.1818 14.906 45.2247 14.5641 45.1853 14.2266C45.1459 13.8891 45.0254 13.5657 44.834 13.2836C44.6373 13.0505 44.3961 12.858 44.1242 12.7171C43.8522 12.5763 43.5548 12.4898 43.249 12.4627L30.1166 12.3134C30.0411 12.3134 29.9656 12.2388 29.8901 12.2388C29.8726 12.2258 29.8583 12.2089 29.8485 12.1895C29.8386 12.17 29.8335 12.1486 29.8335 12.1269C29.8335 12.1052 29.8386 12.0837 29.8485 12.0643C29.8583 12.0449 29.8726 12.028 29.8901 12.0149C29.9656 11.8657 30.0411 11.7911 30.192 11.7911L43.4 11.6418C44.2385 11.5498 45.0371 11.2386 45.7136 10.7402C46.3901 10.2417 46.9201 9.57413 47.2492 8.80598L48.0039 6.86568C48.0039 6.79106 48.0794 6.71643 48.0039 6.6418C47.5936 4.83465 46.5978 3.20934 45.168 2.01285C43.7382 0.816351 41.9524 0.114079 40.082 0.0127439C38.2117 -0.0885908 36.359 0.416552 34.8055 1.45141C33.252 2.48627 32.0827 3.99428 31.4751 5.74628C30.6864 5.18929 29.7243 4.92505 28.758 5.00001C27.8713 5.09778 27.0445 5.49087 26.4136 6.11471C25.7827 6.73855 25.3851 7.55604 25.2862 8.43285C25.236 8.88165 25.2615 9.33559 25.3617 9.77613C23.9269 9.81535 22.5642 10.4065 21.5634 11.4239C20.5627 12.4413 20.0028 13.8046 20.003 15.2239C19.9907 15.4996 20.0161 15.7758 20.0785 16.0448C20.082 16.103 20.107 16.158 20.1487 16.1993C20.1904 16.2406 20.246 16.2652 20.3049 16.2687H44.5321C44.683 16.2687 44.834 16.194 44.834 16.0448L45.0604 15.2239Z" fill="#F48120"/>
<path d="M49.2123 6.86572H48.835C48.7595 6.86572 48.684 6.94035 48.6086 7.01498L48.0802 8.80602C47.9588 9.12386 47.916 9.46581 47.9554 9.80333C47.9948 10.1409 48.1152 10.4642 48.3067 10.7463C48.5033 10.9794 48.7445 11.1719 49.0165 11.3128C49.2884 11.4537 49.5858 11.5401 49.8916 11.5672L52.6842 11.7165C52.7596 11.7165 52.8351 11.7911 52.9106 11.7911C52.9281 11.8041 52.9424 11.821 52.9522 11.8405C52.9621 11.8599 52.9672 11.8813 52.9672 11.903C52.9672 11.9248 52.9621 11.9462 52.9522 11.9656C52.9424 11.985 52.9281 12.0019 52.9106 12.015C52.8351 12.1642 52.7596 12.2389 52.6087 12.2389L49.7407 12.3881C48.9022 12.4801 48.1036 12.7913 47.427 13.2898C46.7505 13.7882 46.2205 14.4558 45.8915 15.2239L45.7405 15.8956C45.6651 15.9702 45.7405 16.1195 45.8915 16.1195H55.8541C55.8848 16.1238 55.9162 16.121 55.9456 16.1113C55.9751 16.1016 56.0019 16.0852 56.0239 16.0635C56.0458 16.0418 56.0624 16.0153 56.0722 15.9861C56.082 15.957 56.0849 15.926 56.0805 15.8956C56.2602 15.2633 56.3615 14.6117 56.3824 13.9553C56.3704 12.0787 55.6112 10.2823 54.2691 8.95528C52.9271 7.62828 51.1103 6.87755 49.2123 6.86572Z" fill="#FAAD3F"/>
<path d="M9.63772 18.9552H11.2982V23.4328H14.1662V24.8507H9.63772V18.9552ZM15.9021 21.8657C15.9021 21.4511 15.9872 21.0409 16.1522 20.6599C16.3173 20.2788 16.5588 19.9348 16.8623 19.6488C17.1657 19.3627 17.5246 19.1405 17.9174 18.9957C18.3102 18.8508 18.7287 18.7863 19.1474 18.806C19.5623 18.7875 19.9766 18.8534 20.3646 18.9997C20.7527 19.1459 21.1062 19.3694 21.4034 19.6562C21.7005 19.943 21.935 20.2871 22.0922 20.6672C22.2494 21.0472 22.326 21.4551 22.3174 21.8657C22.3173 22.2802 22.2322 22.6904 22.0672 23.0714C21.9021 23.4525 21.6606 23.7965 21.3572 24.0825C21.0537 24.3686 20.6948 24.5908 20.302 24.7356C19.9092 24.8805 19.4907 24.9451 19.072 24.9254C18.6587 24.9375 18.2472 24.8672 17.8621 24.7187C17.4769 24.5702 17.1259 24.3465 16.8301 24.0609C16.5342 23.7754 16.2996 23.4338 16.1402 23.0567C15.9807 22.6795 15.8997 22.2744 15.9021 21.8657ZM20.6569 21.8657C20.6717 21.6588 20.6439 21.4511 20.5752 21.2551C20.5066 21.0592 20.3984 20.879 20.2573 20.7255C20.1162 20.5721 19.9451 20.4485 19.7544 20.3623C19.5636 20.276 19.3571 20.229 19.1474 20.2239C18.7405 20.2435 18.3567 20.4172 18.0757 20.7089C17.7947 21.0007 17.638 21.3881 17.638 21.791C17.638 22.1939 17.7947 22.5814 18.0757 22.8731C18.3567 23.1649 18.7405 23.3385 19.1474 23.3582C20.0531 23.5074 20.6569 22.7612 20.6569 21.8657ZM24.3551 22.2388V18.9552H26.0156V22.2388C26.0156 23.0597 26.4684 23.5074 27.1477 23.5074C27.3063 23.5205 27.4659 23.4979 27.6145 23.4414C27.763 23.3848 27.8967 23.2958 28.0056 23.181C28.1145 23.0662 28.1957 22.9285 28.2432 22.7782C28.2907 22.628 28.3032 22.4691 28.2798 22.3134V18.9552H29.9402V22.2388C29.9402 24.1791 28.8081 25 27.1477 25C25.4118 24.9254 24.3551 24.1045 24.3551 22.2388ZM32.4309 18.9552H34.7706C36.8838 18.9552 38.1669 20.1492 38.1669 21.8657C38.1669 23.5821 36.8838 24.8507 34.7706 24.8507H32.5063V18.9552H32.4309ZM34.7706 23.3582C34.9809 23.378 35.1931 23.3542 35.3935 23.2882C35.594 23.2223 35.7783 23.1156 35.9346 22.9751C36.091 22.8345 36.2159 22.6633 36.3013 22.4722C36.3868 22.2812 36.431 22.0746 36.431 21.8657C36.431 21.6567 36.3868 21.4501 36.3013 21.2591C36.2159 21.0681 36.091 20.8968 35.9346 20.7562C35.7783 20.6157 35.594 20.5091 35.3935 20.4431C35.1931 20.3771 34.9809 20.3533 34.7706 20.3731H34.0913V23.3582H34.7706ZM40.5066 18.9552H45.2614V20.3731H42.167V21.3433H44.9595V22.6865H42.167V24.8507H40.5066V18.9552ZM47.6011 18.9552H49.2616V23.4328H52.1296V24.8507H47.6011V18.9552ZM56.4316 18.8806H58.092L60.6581 24.8507H58.8468L58.3939 23.806H56.0542L55.6014 24.8507H53.8655L56.4316 18.8806ZM57.9411 22.5373L57.2618 20.8955L56.5825 22.5373H57.9411ZM62.7714 18.9552H65.5639C65.9202 18.9266 66.2787 18.9716 66.6165 19.0872C66.9543 19.2028 67.2641 19.3866 67.5263 19.6268C67.7425 19.8574 67.8994 20.136 67.9837 20.4392C68.0681 20.7424 68.0773 21.0612 68.0107 21.3686C67.944 21.6761 67.8035 21.9631 67.6009 22.2055C67.3984 22.4479 67.1398 22.6385 66.847 22.7612L68.281 24.8507H66.3941L65.1866 23.0597H64.4318V24.8507H62.7714V18.9552ZM65.4885 21.791C66.0168 21.791 66.3941 21.4925 66.3941 21.1194C66.3941 20.6716 66.0168 20.4477 65.4885 20.4477H64.4318V21.8657H65.4885V21.791ZM70.3943 18.9552H75.2246V20.2985H72.0547V21.194H74.9227V22.5373H72.0547V23.4328H75.3001V24.8507H70.3943V18.9552ZM6.01497 22.6119C5.90114 22.8757 5.712 23.1008 5.4707 23.2599C5.2294 23.419 4.94643 23.505 4.65644 23.5074C4.24946 23.4878 3.86572 23.3141 3.58471 23.0224C3.3037 22.7306 3.14696 22.3432 3.14696 21.9403C3.14696 21.5374 3.3037 21.1499 3.58471 20.8582C3.86572 20.5664 4.24946 20.3928 4.65644 20.3731C4.9651 20.379 5.26528 20.4739 5.52007 20.6463C5.77485 20.8187 5.97311 21.0609 6.09045 21.3433H7.82635C7.67785 20.6284 7.27791 19.9887 6.69756 19.5379C6.11721 19.087 5.39402 18.8541 4.65644 18.8806C4.23924 18.8672 3.82351 18.936 3.43352 19.0832C3.04352 19.2303 2.68707 19.4528 2.38497 19.7376C2.08286 20.0225 1.84115 20.3639 1.67394 20.7421C1.50673 21.1203 1.41736 21.5276 1.41106 21.9403C1.40874 22.3491 1.48971 22.7541 1.64915 23.1313C1.80859 23.5084 2.04322 23.85 2.33906 24.1356C2.6349 24.4211 2.98588 24.6448 3.37106 24.7933C3.75623 24.9418 4.16772 25.0121 4.58097 25C5.30209 25.0048 6.00446 24.773 6.57808 24.3408C7.1517 23.9087 7.56416 23.3007 7.75087 22.6119H6.01497Z" fill="black"/>
</g>
<defs>
<clipPath id="clip0_0_5502">
<rect width="75" height="25" fill="white" transform="translate(0.5)"/>
</clipPath>
</defs>
</svg>
