<svg width="18" height="19" viewBox="0 0 18 19" fill="none" xmlns="http://www.w3.org/2000/svg">
<path d="M15.631 7.01729V10.1673C15.631 12.7923 14.581 13.8423 11.956 13.8423H11.131V11.5173C11.131 8.89228 10.081 7.84229 7.45598 7.84229H5.13098V7.01729C5.13098 4.39229 6.18098 3.34229 8.80598 3.34229H11.956C14.581 3.34229 15.631 4.39229 15.631 7.01729Z" stroke="#667085" stroke-linecap="round" stroke-linejoin="round"/>
<path d="M13.3421 9.22773V12.3777C13.3421 15.0027 12.2921 16.0527 9.6671 16.0527H6.5171C3.8921 16.0527 2.8421 15.0027 2.8421 12.3777V9.22773C2.8421 6.60273 3.8921 5.55273 6.5171 5.55273H9.6671C12.2921 5.55273 13.3421 6.60273 13.3421 9.22773Z" fill="white" stroke="#667085" stroke-linecap="round" stroke-linejoin="round"/>
</svg>
