<svg width="24" height="25" viewBox="0 0 24 25" fill="none" xmlns="http://www.w3.org/2000/svg">
<path d="M22.5271 13.0338C22.5286 14.9998 21.9505 16.9226 20.8651 18.5618C19.7798 20.2011 18.2354 21.4841 16.4249 22.2504C14.6144 23.0168 12.6182 23.2325 10.6858 22.8705C8.75339 22.5086 6.97054 21.5852 5.56008 20.2156C4.14963 18.846 3.17415 17.0911 2.75558 15.1701C2.33702 13.2492 2.49394 11.2475 3.20672 9.4153C3.91951 7.58307 5.15654 6.00157 6.76318 4.86851C8.36983 3.73545 10.2748 3.10108 12.24 3.04471C12.4291 3.02025 12.6206 3.02025 12.8097 3.04471C15.4108 3.11706 17.8813 4.20096 19.6959 6.06603C21.5105 7.93111 22.5262 10.4316 22.5271 13.0338ZM9.17936 20.9512C9.39325 21.0413 9.6101 21.1226 9.82989 21.195C8.51975 18.9213 7.83466 16.3413 7.8442 13.7171H3.95367C4.0806 15.2853 4.63481 16.7887 5.55608 18.0641C6.47736 19.3394 7.73049 20.338 9.17936 20.9512ZM4.60168 9.68892C4.24732 10.5254 4.02939 11.4133 3.9562 12.3188H7.8442C7.83631 9.71044 8.51131 7.14543 9.8021 4.87882C9.59241 4.94871 9.38483 5.02703 9.17936 5.11376C7.11788 5.98745 5.4765 7.62792 4.60168 9.68892ZM15.8059 12.3188C15.7748 11.3389 15.6645 10.3631 15.4762 9.40092C15.292 8.41656 14.9896 7.45804 14.5756 6.54619C14.0109 5.34366 13.301 4.55924 12.6846 4.4405C12.5781 4.43891 12.4716 4.43891 12.365 4.4405C11.7486 4.55924 11.0387 5.34366 10.4741 6.54745C10.0605 7.45936 9.75852 8.41787 9.57473 9.40219C9.38646 10.3639 9.27621 11.3393 9.24504 12.3188H15.8059ZM14.5756 19.4885C14.9896 18.5767 15.292 17.6181 15.4762 16.6338C15.664 15.672 15.7738 14.6966 15.8046 13.7171H9.24631C9.27745 14.6971 9.3877 15.6729 9.57599 16.635C9.75984 17.6189 10.0618 18.577 10.4754 19.4885C11.0905 20.7971 11.8762 21.6106 12.5267 21.6106C13.1773 21.6106 13.9629 20.7971 14.5768 19.4885H14.5756ZM20.4518 16.3786C20.8101 15.5323 21.0289 14.6335 21.0998 13.7171H17.2067C17.2168 16.3422 16.5317 18.9231 15.221 21.1976C15.4408 21.1251 15.6585 21.0434 15.8741 20.9525C17.9353 20.0791 19.5767 18.4391 20.4518 16.3786ZM15.8741 5.11376C15.6684 5.02694 15.4594 4.94814 15.2476 4.87755C16.5385 7.14413 17.2135 9.70916 17.2055 12.3176H21.0973C20.9654 10.7549 20.4091 9.25804 19.4886 7.98847C18.5681 6.7189 17.3183 5.72489 15.8741 5.11376Z" fill="#12B76A"/>
</svg>
