<svg width="19" height="19" viewBox="0 0 19 19" fill="none" xmlns="http://www.w3.org/2000/svg">
<path d="M5.54169 7.93947C5.91489 7.91667 6.37499 7.91667 6.96669 7.91667H12.0334C12.625 7.91667 13.0852 7.91667 13.4584 7.93947M5.54169 7.93947C5.07593 7.96789 4.7455 8.03185 4.46346 8.17554C4.01657 8.40322 3.65325 8.76652 3.42555 9.21342C3.16669 9.72151 3.16669 10.3865 3.16669 11.7167V12.825C3.16669 14.1552 3.16669 14.8202 3.42555 15.3282C3.65325 15.7751 4.01657 16.1384 4.46346 16.3661C4.9715 16.625 5.63656 16.625 6.96669 16.625H12.0334C13.3635 16.625 14.0285 16.625 14.5366 16.3661C14.9835 16.1384 15.3468 15.7751 15.5745 15.3282C15.8334 14.8202 15.8334 14.1552 15.8334 12.825V11.7167C15.8334 10.3865 15.8334 9.72151 15.5745 9.21342C15.3468 8.76652 14.9835 8.40322 14.5366 8.17554C14.2545 8.03185 13.9241 7.96789 13.4584 7.93947M5.54169 7.93947V6.33333C5.54169 4.14721 7.3139 2.375 9.50002 2.375C11.6861 2.375 13.4584 4.14721 13.4584 6.33333V7.93947" stroke="#667085" stroke-width="1.5" stroke-linecap="round" stroke-linejoin="round"/>
</svg>
