<svg width="25" height="25" viewBox="0 0 25 25" fill="none" xmlns="http://www.w3.org/2000/svg">
<g clip-path="url(#clip0_0_6328)">
<path d="M20.3736 4.793L16.3746 0.794C16.3737 0.791984 16.3716 0.791984 16.3707 0.790016C16.2867 0.708031 16.1897 0.647 16.0877 0.600031C16.0567 0.585031 16.0237 0.577016 15.9917 0.565016C15.9067 0.536 15.8197 0.518 15.7297 0.513031C15.7077 0.511016 15.6886 0.5 15.6666 0.5H9.66664C9.64564 0.5 9.62764 0.511016 9.60664 0.512C9.51463 0.518 9.42664 0.536 9.33964 0.566C9.30866 0.577016 9.27664 0.584984 9.24664 0.599C9.14366 0.647 9.04663 0.707984 8.96263 0.790016C8.96164 0.792031 8.95963 0.792031 8.95864 0.794L4.95964 4.793C4.77163 4.97998 4.66663 5.23498 4.66663 5.50002V23.5C4.66663 23.524 4.67661 23.546 4.67764 23.57C4.68266 23.639 4.69166 23.706 4.71064 23.772C4.72166 23.81 4.73563 23.844 4.75063 23.88C4.76361 23.91 4.76863 23.942 4.78461 23.972C4.79863 23.997 4.81859 24.016 4.83463 24.04C4.85563 24.073 4.87761 24.104 4.90264 24.134C4.94263 24.183 4.98664 24.224 5.03464 24.264C5.06263 24.287 5.08864 24.311 5.11864 24.331C5.18366 24.374 5.25463 24.407 5.32864 24.433C5.34566 24.44 5.35864 24.452 5.37664 24.457C5.37964 24.458 5.38363 24.458 5.38663 24.458C5.47663 24.485 5.57061 24.5 5.66661 24.5H19.6666C19.7626 24.5 19.8566 24.485 19.9466 24.458C19.9496 24.457 19.9536 24.458 19.9566 24.457C19.9746 24.452 19.9876 24.44 20.0046 24.433C20.0786 24.407 20.1486 24.374 20.2146 24.331C20.2446 24.311 20.2706 24.287 20.2986 24.264C20.3466 24.224 20.3906 24.182 20.4306 24.134C20.4556 24.104 20.4776 24.073 20.4986 24.04C20.5146 24.016 20.5346 23.997 20.5486 23.972C20.5636 23.942 20.5696 23.91 20.5826 23.88C20.5976 23.844 20.6116 23.81 20.6226 23.772C20.6416 23.705 20.6506 23.639 20.6556 23.57C20.6566 23.546 20.6666 23.524 20.6666 23.5V5.50002C20.6667 5.23498 20.5617 4.97998 20.3736 4.793ZM6.66664 5.91402L8.66666 3.914V17.197L6.66664 20.197V5.91402ZM7.53463 22.5L10.2016 18.5H15.1316L17.7986 22.5H7.53463ZM18.6666 20.197L16.6666 17.197V3.914L18.6666 5.91402V20.197Z" fill="#FDB022"/>
</g>
<defs>
<clipPath id="clip0_0_6328">
<rect width="24" height="24" fill="white" transform="translate(0.666626 0.5)"/>
</clipPath>
</defs>
</svg>
