<svg width="24" height="24" viewBox="0 0 24 24" fill="none" xmlns="http://www.w3.org/2000/svg">
<path d="M9 11L11 13L15 9" stroke="#3E1C96" stroke-width="2" stroke-linecap="round" stroke-linejoin="round"/>
<path d="M12 21L12.88 20.62C14.7249 19.8284 16.318 18.5471 17.4867 16.9148C18.6554 15.2825 19.3551 13.3615 19.51 11.36L19.94 5.84C19.9467 5.61157 19.8749 5.38774 19.7366 5.20579C19.5983 5.02385 19.4019 4.89475 19.18 4.84L12 3L4.81999 4.8C4.59812 4.85475 4.40169 4.98385 4.26341 5.16579C4.12513 5.34774 4.05334 5.57157 4.05999 5.8L4.48999 11.32C4.64491 13.3215 5.34462 15.2425 6.51331 16.8748C7.682 18.5071 9.2751 19.7884 11.12 20.58L12 21Z" stroke="#3E1C96" stroke-width="2" stroke-linecap="round" stroke-linejoin="round"/>
</svg>
