<svg width="16" height="17" viewBox="0 0 16 17" fill="none" xmlns="http://www.w3.org/2000/svg">
<path d="M8 10.5C9.10457 10.5 10 9.60457 10 8.5C10 7.39543 9.10457 6.5 8 6.5C6.89543 6.5 6 7.39543 6 8.5C6 9.60457 6.89543 10.5 8 10.5Z" stroke="#667085"/>
<path d="M9.17689 1.9345C8.93182 1.83301 8.62122 1.83301 7.99996 1.83301C7.37869 1.83301 7.06809 1.83301 6.82302 1.9345C6.49634 2.06983 6.23677 2.32939 6.10144 2.65609C6.03967 2.80523 6.01549 2.97867 6.00603 3.23167C5.99213 3.60346 5.80146 3.9476 5.47925 4.13363C5.15705 4.31965 4.76368 4.3127 4.43475 4.13885C4.21092 4.02054 4.04863 3.95475 3.88858 3.93369C3.53798 3.88753 3.18341 3.98253 2.90286 4.19781C2.69245 4.35926 2.53714 4.62827 2.22651 5.16629C1.91588 5.70432 1.76057 5.97333 1.72595 6.23628C1.6798 6.58687 1.7748 6.94145 1.99008 7.22201C2.08833 7.35007 2.22642 7.45767 2.44075 7.59234C2.75582 7.79034 2.95855 8.12761 2.95853 8.49967C2.95851 8.87174 2.75579 9.20894 2.44074 9.40687C2.22639 9.54161 2.08828 9.64927 1.99001 9.77734C1.77474 10.0579 1.67973 10.4124 1.72589 10.763C1.7605 11.0259 1.91582 11.295 2.22644 11.833C2.53708 12.371 2.69239 12.6401 2.9028 12.8015C3.18334 13.0167 3.53792 13.1117 3.88852 13.0656C4.04855 13.0445 4.21084 12.9787 4.43465 12.8605C4.7636 12.6866 5.157 12.6797 5.47922 12.8657C5.80145 13.0517 5.99213 13.3959 6.00603 13.7677C6.0155 14.0207 6.03967 14.1941 6.10144 14.3433C6.23677 14.6699 6.49634 14.9295 6.82302 15.0649C7.06809 15.1663 7.37869 15.1663 7.99996 15.1663C8.62122 15.1663 8.93182 15.1663 9.17689 15.0649C9.50356 14.9295 9.76316 14.6699 9.89842 14.3433C9.96022 14.1941 9.98442 14.0207 9.99389 13.7677C10.0078 13.3959 10.1984 13.0517 10.5206 12.8657C10.8428 12.6796 11.2362 12.6866 11.5652 12.8605C11.789 12.9787 11.9513 13.0445 12.1113 13.0655C12.4619 13.1117 12.8165 13.0167 13.097 12.8015C13.3074 12.64 13.4628 12.371 13.7734 11.8329C14.084 11.2949 14.2394 11.0259 14.274 10.763C14.3201 10.4124 14.2251 10.0578 14.0098 9.77727C13.9116 9.64921 13.7734 9.54154 13.5591 9.40687C13.2441 9.20894 13.0414 8.87167 13.0414 8.49961C13.0414 8.12754 13.2441 7.79041 13.5591 7.59247C13.7735 7.45774 13.9116 7.35014 14.0099 7.22201C14.2252 6.94149 14.3202 6.58692 14.274 6.23632C14.2394 5.97337 14.0841 5.70436 13.7734 5.16634C13.4628 4.62832 13.3075 4.35931 13.0971 4.19785C12.8166 3.98258 12.462 3.88757 12.1114 3.93373C11.9514 3.9548 11.7891 4.02058 11.5652 4.13887C11.2363 4.31273 10.8429 4.31969 10.5207 4.13365C10.1984 3.94761 10.0078 3.60345 9.99389 3.23163C9.98442 2.97866 9.96022 2.80523 9.89842 2.65609C9.76316 2.32939 9.50356 2.06983 9.17689 1.9345Z" stroke="#667085"/>
</svg>
