<svg width="20" height="20" viewBox="0 0 20 20" fill="none" xmlns="http://www.w3.org/2000/svg">
<path d="M7.99362 2.66676C7.79071 2.83969 7.68924 2.92616 7.58088 2.99879C7.33246 3.16529 7.05347 3.28085 6.76007 3.33877C6.63208 3.36405 6.49918 3.37465 6.23339 3.39586C5.56558 3.44915 5.23166 3.4758 4.95308 3.5742C4.30875 3.80178 3.80193 4.3086 3.57435 4.95293C3.47595 5.23151 3.44931 5.56541 3.39602 6.23323C3.37481 6.49902 3.3642 6.63193 3.33893 6.75992C3.281 7.05331 3.16544 7.33231 2.99894 7.58072C2.92631 7.68909 2.83983 7.79056 2.66689 7.9935C2.23236 8.50341 2.01508 8.75834 1.88768 9.02492C1.59298 9.64151 1.59298 10.3582 1.88768 10.9748C2.01508 11.2413 2.23235 11.4963 2.66688 12.0062C2.83979 12.2091 2.92632 12.3106 2.99894 12.4189C3.16544 12.6673 3.281 12.9463 3.33893 13.2398C3.3642 13.3678 3.3748 13.5007 3.39601 13.7664C3.4493 14.4343 3.47595 14.7682 3.57435 15.0468C3.80193 15.6911 4.30875 16.1979 4.95308 16.4255C5.23165 16.5238 5.56555 16.5505 6.23333 16.6038C6.49912 16.625 6.63208 16.6357 6.76007 16.6609C7.05347 16.7188 7.33246 16.8344 7.58088 17.0009C7.68925 17.0735 7.79072 17.16 7.99366 17.3329C8.50357 17.7675 8.75849 17.9848 9.02508 18.1122C9.64166 18.4068 10.3583 18.4068 10.9749 18.1122C11.2415 17.9848 11.4964 17.7675 12.0063 17.3329C12.2092 17.16 12.3107 17.0735 12.4191 17.0009C12.6675 16.8344 12.9465 16.7188 13.2399 16.6609C13.3679 16.6357 13.5008 16.625 13.7666 16.6038C14.4343 16.5505 14.7683 16.5238 15.0469 16.4255C15.6912 16.1979 16.1981 15.6911 16.4257 15.0468C16.524 14.7682 16.5507 14.4343 16.604 13.7665C16.6252 13.5008 16.6358 13.3678 16.6611 13.2398C16.719 12.9463 16.8346 12.6673 17.0011 12.4189C17.0737 12.3106 17.1602 12.2091 17.3331 12.0062C17.7677 11.4963 17.9849 11.2413 18.1123 10.9748C18.407 10.3582 18.407 9.64151 18.1123 9.02492C17.9849 8.75834 17.7677 8.50342 17.3331 7.99351C17.1602 7.79056 17.0737 7.6891 17.0011 7.58072C16.8346 7.33231 16.719 7.05331 16.6611 6.75992C16.6358 6.63193 16.6252 6.49903 16.604 6.23324C16.5507 5.56546 16.524 5.2315 16.4257 4.95293C16.1981 4.3086 15.6912 3.80178 15.0469 3.5742C14.7683 3.4758 14.4344 3.44916 13.7666 3.39586C13.5008 3.37466 13.3679 3.36405 13.2399 3.33877C12.9465 3.28085 12.6675 3.16529 12.4191 2.99879C12.3107 2.92616 12.2092 2.83968 12.0063 2.66673C11.4964 2.2322 11.2415 2.01493 10.9749 1.88752C10.3583 1.59283 9.64166 1.59283 9.02508 1.88752C8.75849 2.01492 8.50354 2.23223 7.99362 2.66676Z" fill="#12B76A"/>
<path d="M13.6447 8.21883C13.9095 7.95397 13.9095 7.52454 13.6447 7.25969C13.3798 6.99482 12.9503 6.99482 12.6855 7.25969L8.64359 11.3016L7.31461 9.97251C7.04976 9.70768 6.62033 9.70768 6.35547 9.97251C6.09062 10.2374 6.09062 10.6668 6.35547 10.9317L8.16405 12.7403C8.42892 13.0051 8.85834 13.0051 9.12317 12.7403L13.6447 8.21883Z" fill="white"/>
</svg>
